<?xml version="1.0" encoding="UTF-8" standalone="no"?> <svg xmlns="http://www.w3.org/2000/svg" viewBox="0 0 32 32"><title>Zoo</title><g id="Zoo"><path d="M19,29a5.812,5.812,0,0,1-1.448-.183,6.242,6.242,0,0,0-3.1,0,5.891,5.891,0,0,1-2.72.046A6,6,0,0,1,8.687,18.83a6.22,6.22,0,0,0,1.578-2.552,5.9,5.9,0,0,1,2.393-3.263,6,6,0,0,1,6.684,0,5.9,5.9,0,0,1,2.393,3.263h0a6.218,6.218,0,0,0,1.577,2.551,6,6,0,0,1-3.041,10.036A6.134,6.134,0,0,1,19,29Zm-3-2.38a8.209,8.209,0,0,1,2.045.26,3.93,3.93,0,0,0,1.809.028,4,4,0,0,0,2.021-6.688,8.208,8.208,0,0,1-2.06-3.382h0a3.934,3.934,0,0,0-1.6-2.17,4.041,4.041,0,0,0-4.438,0,3.934,3.934,0,0,0-1.6,2.17,8.209,8.209,0,0,1-2.061,3.383,4,4,0,0,0,2.022,6.686,3.957,3.957,0,0,0,1.809-.027A8.2,8.2,0,0,1,16,26.621Z"/><path d="M11.5,10A3.5,3.5,0,1,1,15,6.5,3.5,3.5,0,0,1,11.5,10Zm0-5A1.5,1.5,0,1,0,13,6.5,1.5,1.5,0,0,0,11.5,5Z"/><path d="M20.5,10A3.5,3.5,0,1,1,24,6.5,3.5,3.5,0,0,1,20.5,10Zm0-5A1.5,1.5,0,1,0,22,6.5,1.5,1.5,0,0,0,20.5,5Z"/><path d="M26,16a3,3,0,1,1,3-3A3,3,0,0,1,26,16Zm0-4a1,1,0,1,0,1,1A1,1,0,0,0,26,12Z"/><path d="M6,16a3,3,0,1,1,3-3A3,3,0,0,1,6,16Zm0-4a1,1,0,1,0,1,1A1,1,0,0,0,6,12Z"/></g></svg>