<?xml version="1.0" standalone="no"?>
<!DOCTYPE svg PUBLIC "-//W3C//DTD SVG 20010904//EN"
 "http://www.w3.org/TR/2001/REC-SVG-20010904/DTD/svg10.dtd">
<svg version="1.0" xmlns="http://www.w3.org/2000/svg"
 width="752.000000pt" height="980.000000pt" viewBox="0 0 752.000000 980.000000"
 preserveAspectRatio="xMidYMid meet">

<g transform="translate(0.000000,980.000000) scale(0.100000,-0.100000)"
fill="#000000" stroke="none">
<path d="M3686 9786 c-70 -26 -108 -77 -219 -290 -59 -110 -109 -209 -112
-218 -8 -19 -64 -33 -300 -73 -205 -35 -269 -57 -322 -111 -47 -49 -67 -105
-57 -160 11 -60 82 -152 246 -320 87 -89 158 -169 158 -178 0 -9 -16 -105 -35
-213 -19 -108 -35 -229 -35 -268 0 -62 4 -78 33 -125 71 -120 187 -136 369
-54 44 20 81 34 84 31 2 -2 -285 -366 -639 -808 -1002 -1255 -1245 -1567
-1266 -1628 -18 -56 -13 -131 13 -186 23 -51 89 -119 130 -134 35 -14 186 -29
354 -37 84 -4 151 -10 150 -15 -2 -4 -187 -225 -413 -490 -680 -801 -980
-1165 -1012 -1229 -13 -24 -18 -58 -18 -111 0 -67 4 -81 30 -124 40 -63 96
-102 165 -115 30 -5 158 -14 284 -19 126 -6 230 -12 232 -14 2 -2 -195 -230
-438 -508 -740 -846 -1030 -1187 -1050 -1238 -5 -14 -10 -54 -10 -88 -1 -78
27 -138 88 -192 85 -75 43 -71 969 -81 457 -5 1092 -9 1413 -10 l582 0 0 -252
c0 -145 5 -269 11 -291 5 -20 32 -65 58 -100 94 -122 161 -137 631 -137 470 0
539 15 632 137 26 35 52 80 57 100 6 22 11 146 11 289 l0 251 1303 7 c1416 9
1541 12 1601 41 51 25 104 80 129 134 25 57 27 153 4 201 -28 57 -418 515
-1210 1420 -152 173 -275 316 -273 317 1 2 106 8 232 13 126 6 254 15 284 20
134 24 217 150 196 294 -10 63 -166 257 -1046 1299 -217 258 -396 472 -398
476 -1 5 66 11 150 15 168 8 319 23 354 37 41 15 107 83 130 134 24 51 30 112
17 176 -11 54 -206 306 -1251 1613 -364 456 -660 831 -658 833 3 3 40 -11 84
-31 131 -59 211 -66 292 -26 42 22 61 42 89 97 30 61 27 133 -16 385 l-37 218
161 163 c165 168 236 259 247 322 18 92 -53 187 -164 224 -36 11 -146 34 -245
51 -99 16 -196 34 -217 40 -44 12 -66 45 -166 247 -90 182 -131 243 -182 272
-51 28 -132 36 -184 17z m170 -688 l89 -173 175 -23 c228 -31 222 -30 213 -46
-4 -8 -67 -77 -139 -153 l-131 -138 30 -188 c16 -103 27 -190 25 -193 -3 -3
-85 34 -182 83 l-176 88 -176 -88 c-97 -49 -178 -86 -181 -83 -3 2 8 89 25
192 l29 188 -140 150 c-120 128 -138 151 -121 157 10 4 98 17 194 29 96 12
178 24 182 26 4 3 46 81 94 174 47 94 90 170 94 170 4 0 47 -78 96 -172z m116
-1800 c344 -425 1154 -1441 1432 -1796 49 -62 85 -116 81 -120 -3 -4 -225 -9
-493 -12 l-485 -5 449 -530 c841 -992 1316 -1556 1313 -1560 -2 -2 -197 -6
-434 -10 -236 -4 -468 -10 -514 -14 l-84 -6 910 -1040 910 -1040 -281 -6
c-155 -3 -815 -7 -1468 -8 l-1188 -1 0 -113 c0 -63 -3 -243 -7 -400 l-6 -287
-347 0 -348 0 -7 400 -7 400 -1187 1 c-652 1 -1312 5 -1467 8 l-281 6 910
1040 910 1040 -119 7 c-65 4 -298 11 -517 14 -219 4 -397 10 -395 15 3 9 254
306 1171 1387 323 381 587 695 587 697 0 3 -183 5 -407 5 -225 0 -445 3 -491
7 l-82 6 17 26 c69 107 1698 2141 1714 2141 4 0 99 -114 211 -252z"/>
<path d="M3859 6439 c-153 -23 -298 -192 -287 -335 6 -68 42 -139 103 -199
134 -135 302 -134 438 2 65 64 91 122 95 209 5 89 -16 141 -84 215 -83 88
-167 123 -265 108z"/>
<path d="M3395 4583 c-69 -28 -143 -81 -174 -124 -45 -61 -74 -145 -69 -199
10 -106 97 -224 205 -276 138 -68 320 11 399 173 73 149 -4 324 -181 409 -77
38 -119 41 -180 17z m95 -306 c0 -19 -10 -27 -26 -20 -21 8 -17 33 6 33 11 0
20 -6 20 -13z"/>
<path d="M4462 3040 c-122 -57 -216 -184 -216 -290 0 -110 106 -263 217 -310
99 -43 222 -13 318 77 65 61 100 129 107 209 10 130 -57 232 -200 304 -99 49
-139 51 -226 10z"/>
<path d="M2674 2331 c-93 -46 -133 -84 -170 -166 -37 -81 -42 -149 -16 -209
28 -62 122 -159 185 -191 231 -115 515 178 392 404 -55 100 -192 201 -273 201
-24 0 -67 -14 -118 -39z m126 -286 c-7 -8 -16 -15 -21 -15 -5 0 -9 7 -9 15 0
9 9 15 21 15 18 0 19 -2 9 -15z"/>
</g>
</svg>
