<?xml version="1.0" encoding="UTF-8" standalone="no"?> <svg id="Layer_1" data-name="Layer 1" xmlns="http://www.w3.org/2000/svg" viewBox="0 0 48 48"><path d="M46,34H45V11a5.006,5.006,0,0,0-5-5H8a5.006,5.006,0,0,0-5,5V34H2a2,2,0,0,0-2,2v1a5.006,5.006,0,0,0,5,5H43a5.006,5.006,0,0,0,5-5V36A2,2,0,0,0,46,34ZM5,11A3,3,0,0,1,8,8H40a3,3,0,0,1,3,3V34H5ZM31.132,36l-.667,1H17.535l-.667-1ZM46,37a3,3,0,0,1-3,3H5a3,3,0,0,1-3-3V36H14.465l1.7,2.555A1,1,0,0,0,17,39H31a1,1,0,0,0,.832-.445L33.535,36H46Z"/><path d="M40,10H8a1,1,0,0,0-1,1V31a1,1,0,0,0,1,1H40a1,1,0,0,0,1-1V11A1,1,0,0,0,40,10ZM39,30H9V12H39Z"/></svg>