<?xml version="1.0" encoding="UTF-8" standalone="no"?> <svg xmlns="http://www.w3.org/2000/svg" viewBox="0 0 32 32"><title>Restaurant</title><g id="Restaurant"><path d="M22,10a1,1,0,0,0,1-1V3a1,1,0,0,0-2,0V9A1,1,0,0,0,22,10Z"/><path d="M10,2C7.053,2,5,6.216,5,10c0,2.5.935,4.41,2.592,5.358L7.069,27.392A2.5,2.5,0,0,0,9.566,30h.868a2.5,2.5,0,0,0,2.5-2.608l-.523-12.034C14.065,14.41,15,12.5,15,10,15,6.216,12.947,2,10,2Zm1.026,11.805a1,1,0,0,0-.645.979l.552,12.695a.5.5,0,0,1-.5.521H9.566a.5.5,0,0,1-.5-.521l.552-12.695a1,1,0,0,0-.645-.979C7.7,13.324,7,11.972,7,10c0-3.175,1.678-6,3-6s3,2.825,3,6C13,11.972,12.3,13.324,11.026,13.805Z"/><path d="M26,2a1,1,0,0,0-1,1v7a2.976,2.976,0,0,1-1.989,2.815.989.989,0,0,0-.657.967c0,.01.579,13.7.579,13.7a.5.5,0,0,1-.5.521h-.868a.5.5,0,0,1-.5-.521s.581-13.692.58-13.7a.989.989,0,0,0-.666-.962,2.987,2.987,0,0,1-1.1-.685A3.018,3.018,0,0,1,19,10V3a1,1,0,0,0-2,0v7a5.017,5.017,0,0,0,1.471,3.545,5.135,5.135,0,0,0,1.161.846l-.563,13A2.5,2.5,0,0,0,21.566,30h.868a2.5,2.5,0,0,0,2.5-2.608L24.368,14.4A4.985,4.985,0,0,0,27,10V3A1,1,0,0,0,26,2Z"/></g></svg>