<?xml version="1.0" encoding="utf-8"?>
<!-- Generator: Adobe Illustrator 24.3.0, SVG Export Plug-In . SVG Version: 6.00 Build 0)  -->
<svg version="1.1" id="Layer_1" xmlns="http://www.w3.org/2000/svg" xmlns:xlink="http://www.w3.org/1999/xlink" x="0px" y="0px"
	 viewBox="0 0 64 64" enable-background="new 0 0 64 64" xml:space="preserve">
<path d="M41,19.1l-6,0.6c-0.1-3.6,0.9-7.1,3-10.1l0.7-1c0.2-0.3,0.2-0.7,0.1-1S38.4,7,38,7h-6c-0.3,0-0.6,0.1-0.8,0.3
	c-2.9,3.4-4.4,7.7-4.4,12.1L23,19.1c-5.3-0.6-10.7,1.2-14.7,4.8C4.3,27.5,2,32.6,2,38c0,10.5,8.5,19,19,19h22c10.5,0,19-8.5,19-19
	c0-5.4-2.3-10.5-6.3-14.1C51.7,20.3,46.4,18.5,41,19.1z M32.5,9h3.6c-2.1,3.2-3.2,7-3,10.9L32,20l-3.2-0.3C28.8,15.8,30,12,32.5,9z
	 M44.6,54.9c3.6-1.4,6.4-2.8,6.4-7.1h-2c0,3-1.6,3.9-5.1,5.3l-5,1.9H25.2l-5-1.9c-3.5-1.3-5.1-2.3-5.1-5.3h-2c0,4.3,2.8,5.7,6.4,7.1
	C10.8,54.1,4,46.8,4,38c0-4.8,2-9.4,5.6-12.6C12.8,22.5,16.8,21,21,21c0.6,0,1.2,0,1.7,0.1l2.9,0.3l-1.3,0.5
	C20.8,23.2,18,24.7,18,29h2c0-3,1.6-3.9,5.1-5.3l5-1.9l1.8,0.2c0.1,0,0.1,0,0.2,0l1.8-0.2l5,1.9C42.4,25.1,44,26,44,29h2
	c0-4.3-2.8-5.8-6.4-7.2l-1.3-0.5l2.9-0.3c4.8-0.5,9.6,1.1,13.2,4.3C58,28.6,60,33.2,60,38C60,46.8,53.2,54.1,44.6,54.9z"/>
<path d="M49.6,37.1l-5.9,3c-0.3,0.2-0.7,0.3-1,0.5c-0.4,0.2-0.6,0.5-0.6,0.9V43h-2v-0.1c0-0.3-0.1-0.6-0.4-0.8
	c-0.2-0.2-0.6-0.3-0.9-0.2c-1.5,0.4-3.2,0.7-4.8,0.8c-0.5,0-0.9,0.5-0.9,1V45h-2v-1.3c0-0.5-0.4-1-0.9-1c-1.6-0.1-3.2-0.4-4.8-0.8
	c-0.3-0.1-0.6,0-0.9,0.2S24,42.6,24,42.9V43h-2v-1.5c0-0.4-0.2-0.8-0.6-0.9c-0.3-0.2-0.7-0.3-1-0.5l-5.9-3c-0.4-0.2-0.9-0.1-1.2,0.2
	c-0.3,0.3-0.4,0.8-0.2,1.2l3.3,6.2c1,1.9,2.3,3.5,3.9,5c0.3,0.3,0.7,0.3,1.1,0.2c0.3-0.1,0.5-0.4,0.6-0.8h2v2.4
	c0,0.4,0.2,0.7,0.6,0.9c1.7,0.8,3.5,1.3,5.3,1.5c0,0,0.1,0,0.1,0c0.2,0,0.5-0.1,0.7-0.3c0.2-0.2,0.3-0.5,0.3-0.7V51h2v1.9
	c0,0.3,0.1,0.6,0.3,0.7c0.2,0.2,0.5,0.3,0.8,0.2c1.8-0.2,3.6-0.7,5.3-1.5c0.4-0.2,0.6-0.5,0.6-0.9V49h2c0.1,0.3,0.3,0.6,0.6,0.8
	c0.4,0.2,0.8,0.1,1.1-0.2c1.6-1.4,2.9-3.1,3.9-4.9l3.3-6.2c0.2-0.4,0.1-0.9-0.2-1.2S49.9,36.9,49.6,37.1z M45.8,43.7
	c-0.7,1.2-1.5,2.4-2.4,3.4C43.3,47,43.1,47,43,47h-4c-0.6,0-1,0.4-1,1v2.8c-1,0.4-2,0.7-3,0.9V50c0-0.6-0.4-1-1-1h-4
	c-0.6,0-1,0.4-1,1v1.7c-1-0.2-2-0.5-3-0.9V48c0-0.6-0.4-1-1-1h-4c-0.1,0-0.3,0-0.4,0.1c-1-1-1.8-2.1-2.4-3.4l-1.8-3.4l3.1,1.6
	c0.2,0.1,0.3,0.2,0.5,0.2V44c0,0.6,0.4,1,1,1h4c0.5,0,0.9-0.4,1-0.9c1,0.2,2,0.4,3,0.5V46c0,0.6,0.4,1,1,1h4c0.6,0,1-0.4,1-1v-1.4
	c1-0.1,2-0.3,3-0.5c0.1,0.5,0.5,0.9,1,0.9h4c0.6,0,1-0.4,1-1v-1.9c0.2-0.1,0.3-0.2,0.5-0.2l3.1-1.6L45.8,43.7z"/>
<path d="M29,41h6c0.4,0,0.7-0.2,0.9-0.5c0.2-0.3,0.2-0.7,0-1l-3-5c-0.4-0.6-1.4-0.6-1.7,0l-3,5c-0.2,0.3-0.2,0.7,0,1
	C28.3,40.8,28.6,41,29,41z M32,36.9l1.2,2.1h-2.5L32,36.9z"/>
<path d="M21,38h5c0.6,0,1-0.4,1-1v-3c0-2.2-1.8-4-4-4h-5c-0.6,0-1,0.4-1,1v3C17,36.2,18.8,38,21,38z M19,32h4c1.1,0,2,0.9,2,2v2h-4
	c-1.1,0-2-0.9-2-2V32z"/>
<path d="M38,38h5c2.2,0,4-1.8,4-4v-3c0-0.6-0.4-1-1-1h-5c-2.2,0-4,1.8-4,4v3C37,37.6,37.4,38,38,38z M39,34c0-1.1,0.9-2,2-2h4v2
	c0,1.1-0.9,2-2,2h-4V34z"/>
<polygon points="51,13 53,13 53,11 55,11 55,9 53,9 53,7 51,7 51,9 49,9 49,11 51,11 "/>
<rect x="44" y="5" width="2" height="2"/>
<rect x="57" y="2" width="2" height="2"/>
<rect x="16" y="2" width="2" height="2"/>
<polygon points="11,17 13,17 13,15 15,15 15,13 13,13 13,11 11,11 11,13 9,13 9,15 11,15 "/>
<rect x="2" y="11" width="2" height="2"/>
<rect x="22" y="6" width="2" height="2"/>
</svg>
