<?xml version="1.0" encoding="UTF-8" standalone="no"?> <svg xmlns="http://www.w3.org/2000/svg" viewBox="0 0 32 32"><title>Cinema</title><g id="Cinema"><path d="M16,12a3.5,3.5,0,1,0-3.5-3.5A3.5,3.5,0,0,0,16,12Zm0-5a1.5,1.5,0,1,1-1.5,1.5A1.5,1.5,0,0,1,16,7Z"/><path d="M12.367,13.682a3.5,3.5,0,1,0-3.5,3.5A3.5,3.5,0,0,0,12.367,13.682Zm-5,0a1.5,1.5,0,1,1,1.5,1.5A1.5,1.5,0,0,1,7.367,13.682Z"/><path d="M11.592,18.568a3.5,3.5,0,1,0,3.5,3.5A3.5,3.5,0,0,0,11.592,18.568Zm0,5a1.5,1.5,0,1,1,1.5-1.5A1.5,1.5,0,0,1,11.592,23.568Z"/><path d="M20.409,18.568h0a3.5,3.5,0,1,0,2.475,1.025A3.5,3.5,0,0,0,20.408,18.568Zm0,5a1.5,1.5,0,0,1,0-3h0a1.5,1.5,0,0,1,0,3Z"/><path d="M22.052,17.011A3.5,3.5,0,1,0,19.8,12.6,3.485,3.485,0,0,0,22.052,17.011Zm-.346-3.792a1.5,1.5,0,0,1,1.89-.963h0a1.5,1.5,0,1,1-1.891.963Z"/><path d="M28,28H23.174A13.971,13.971,0,1,0,16,30H28a1,1,0,0,0,0-2ZM4,16A12,12,0,1,1,16,28,12.013,12.013,0,0,1,4,16Z"/><circle cx="16" cy="16" r="1"/></g></svg>