<?xml version="1.0" encoding="UTF-8" standalone="no"?> <svg xmlns="http://www.w3.org/2000/svg" viewBox="0 0 32 32"><title>Football Field</title><g id="Football_Field" data-name="Football Field"><path d="M27,5H5A3,3,0,0,0,2,8V24a3,3,0,0,0,3,3H27a3,3,0,0,0,3-3V8A3,3,0,0,0,27,5Zm1,14H25V13h3ZM16,18a2,2,0,1,1,2-2A2,2,0,0,1,16,18ZM4,13H7v6H4ZM5,25a1,1,0,0,1-1-1V21H7a2,2,0,0,0,2-2V13a2,2,0,0,0-2-2H4V8A1,1,0,0,1,5,7H15v5.142a3.981,3.981,0,0,0,0,7.716V25Zm23-1a1,1,0,0,1-1,1H17V19.858a3.981,3.981,0,0,0,0-7.716V7H27a1,1,0,0,1,1,1v3H25a2,2,0,0,0-2,2v6a2,2,0,0,0,2,2h3Z"/></g></svg>