<?xml version="1.0" standalone="no"?>
<svg version="1.0" xmlns="http://www.w3.org/2000/svg"
 width="512.000000pt" height="512.000000pt" viewBox="0 0 512.000000 512.000000"
 preserveAspectRatio="xMidYMid meet">

<g transform="translate(0.000000,512.000000) scale(0.100000,-0.100000)"
fill="#000000" stroke="none">
<path d="M345 4830 c-11 -4 -31 -20 -45 -35 l-25 -27 0 -1276 c0 -1412 -3
-1336 64 -1520 144 -393 225 -553 393 -781 84 -113 270 -307 383 -398 317
-256 701 -425 1115 -490 140 -21 488 -24 625 -5 674 96 1252 459 1617 1017
122 185 187 325 309 657 67 184 64 108 64 1520 l0 1278 -30 30 c-39 38 -90 48
-136 26 -28 -13 -54 -48 -138 -189 -158 -261 -346 -541 -487 -724 l-64 -81
-123 122 c-348 344 -681 540 -1047 617 -147 30 -372 31 -517 0 -368 -77 -706
-276 -1051 -618 l-122 -121 -64 81 c-141 183 -329 463 -487 724 -81 135 -111
176 -135 188 -35 16 -68 18 -99 5z m2579 -532 c283 -91 605 -319 878 -623 55
-60 111 -118 126 -127 33 -22 100 -23 129 -3 51 36 300 365 469 619 l79 119 3
-979 c2 -662 -1 -1006 -8 -1063 -51 -391 -336 -706 -720 -795 -206 -49 -439
-22 -625 71 -95 48 -135 77 -273 195 -140 120 -176 144 -262 175 -50 17 -86
23 -160 23 -161 0 -232 -35 -450 -221 -229 -195 -454 -280 -705 -266 -459 27
-826 366 -885 818 -7 57 -10 401 -8 1063 l3 978 108 -161 c175 -261 403 -558
447 -581 29 -16 92 -12 122 8 15 9 71 67 126 127 211 234 454 427 682 541 107
53 253 107 258 94 2 -5 -11 -180 -28 -390 -17 -210 -28 -394 -25 -411 4 -16
18 -38 32 -49 23 -18 41 -20 189 -20 125 0 164 -3 164 -12 0 -7 -23 -150 -51
-318 -50 -304 -56 -383 -29 -415 15 -18 60 -20 82 -2 19 14 446 963 461 1023
13 54 2 110 -28 140 -23 23 -28 24 -190 24 -91 0 -165 4 -165 9 0 5 23 101 50
214 28 113 50 213 50 221 0 19 30 14 154 -26z m-259 -2647 c22 -10 96 -66 165
-125 69 -59 154 -126 190 -150 307 -204 692 -250 1047 -126 l84 29 -40 -47
c-104 -123 -265 -265 -414 -366 -245 -166 -555 -284 -857 -327 -137 -20 -468
-17 -595 5 -415 71 -784 249 -1070 516 -79 74 -207 211 -201 217 2 2 23 -5 48
-16 84 -36 248 -71 362 -77 199 -11 385 26 565 112 125 60 201 111 346 235 66
56 138 110 160 120 54 25 156 25 210 0z"/>
<path d="M1289 2991 c-197 -37 -397 -201 -508 -418 -29 -57 -27 -76 15 -151
98 -179 238 -304 412 -370 126 -48 342 -31 449 34 37 23 104 66 122 79 42 31
113 109 158 175 96 142 101 168 52 257 -62 112 -136 201 -214 258 -22 17 -42
33 -45 37 -11 15 -107 61 -165 79 -69 22 -209 32 -276 20z m234 -190 c111 -39
230 -140 294 -252 l23 -40 -34 -52 c-78 -123 -185 -211 -294 -243 -89 -25
-210 -16 -293 23 -70 33 -90 46 -152 107 -49 48 -117 144 -117 166 0 21 65
113 112 161 70 69 136 111 213 135 62 20 183 17 248 -5z"/>
<path d="M3599 2991 c-197 -37 -397 -201 -508 -418 -29 -57 -27 -76 15 -151
98 -179 238 -304 412 -370 126 -48 342 -31 449 34 37 23 104 66 122 79 42 31
113 109 158 175 96 142 101 168 52 257 -62 112 -136 201 -214 258 -22 17 -42
33 -45 37 -11 15 -107 61 -165 79 -69 22 -209 32 -276 20z m234 -190 c111 -39
230 -140 294 -252 l23 -40 -34 -52 c-78 -123 -185 -211 -294 -243 -89 -25
-210 -16 -293 23 -70 33 -90 46 -152 107 -49 48 -117 144 -117 166 0 21 65
113 112 161 70 69 136 111 213 135 62 20 183 17 248 -5z"/>
<path d="M2252 1148 c-19 -19 -16 -28 49 -133 97 -160 108 -173 162 -200 103
-51 216 -19 280 78 103 158 141 229 130 245 -9 15 -42 17 -309 20 -225 2 -303
-1 -312 -10z"/>
</g>
</svg>
