<?xml version="1.0" encoding="iso-8859-1"?>
<!-- Generator: Adobe Illustrator 21.1.0, SVG Export Plug-In . SVG Version: 6.00 Build 0)  -->
<svg version="1.1" id="Layer_1" xmlns="http://www.w3.org/2000/svg" xmlns:xlink="http://www.w3.org/1999/xlink" x="0px" y="0px"
	 viewBox="0 0 100.354 100.352" style="enable-background:new 0 0 100.354 100.352;" xml:space="preserve">
<g>
	<path d="M83.93,18.308h-9.259v-2.112c0-2.958-2.406-5.363-5.363-5.363s-5.362,2.406-5.362,5.363v2.112h-8.538v-2.112
		c0-2.958-2.406-5.363-5.363-5.363c-2.958,0-5.363,2.406-5.363,5.363v2.112h-8.623v-2.112c0-2.958-2.406-5.363-5.363-5.363
		c-2.957,0-5.363,2.406-5.363,5.363v2.112h-9.26c-0.829,0-1.5,0.671-1.5,1.5v67.858c0,0.828,0.671,1.5,1.5,1.5H83.93
		c0.828,0,1.5-0.672,1.5-1.5V19.808C85.43,18.979,84.758,18.308,83.93,18.308z M69.308,13.833c1.303,0,2.363,1.06,2.363,2.363v3.592
		c0,0.007-0.002,0.013-0.002,0.019s0.002,0.013,0.002,0.019v3.593c0,1.303-1.061,2.363-2.363,2.363s-2.362-1.06-2.362-2.363v-3.583
		c0-0.01,0.003-0.019,0.003-0.029s-0.003-0.019-0.003-0.029v-3.583C66.945,14.893,68.005,13.833,69.308,13.833z M47.681,16.196
		c0-1.303,1.06-2.363,2.363-2.363c1.303,0,2.363,1.06,2.363,2.363v7.224c0,1.303-1.061,2.363-2.363,2.363
		c-1.303,0-2.363-1.06-2.363-2.363V16.196z M28.332,16.196c0-1.303,1.06-2.363,2.363-2.363c1.303,0,2.363,1.06,2.363,2.363v7.224
		c0,1.303-1.06,2.363-2.363,2.363c-1.303,0-2.363-1.06-2.363-2.363V16.196z M82.43,86.166H17.572V21.308h7.76v2.112
		c0,2.957,2.406,5.363,5.363,5.363c2.958,0,5.363-2.406,5.363-5.363v-2.112h8.623v2.112c0,2.957,2.406,5.363,5.363,5.363
		c2.957,0,5.363-2.406,5.363-5.363v-2.112h8.538v2.112c0,2.957,2.405,5.363,5.362,5.363s5.363-2.406,5.363-5.363v-2.112h7.759
		V86.166z"/>
	<path d="M58.977,39.587c-3.784,0-7.104,2.024-8.933,5.047c-1.83-3.022-5.151-5.047-8.937-5.047c-5.755,0-10.437,4.679-10.437,10.43
		c0,2.223,0.716,4.364,2.106,6.238l16.096,20.103c0.285,0.355,0.715,0.562,1.171,0.562c0,0,0.001,0,0.001,0
		c0.456,0,0.887-0.208,1.171-0.564l16.445-20.61c0.032-0.04,0.062-0.082,0.09-0.126c1.09-1.7,1.666-3.637,1.666-5.603
		C69.417,44.266,64.733,39.587,58.977,39.587z M65.266,53.938l-15.225,19.08L35.152,54.425c-0.97-1.31-1.482-2.834-1.482-4.408
		c0-4.097,3.336-7.43,7.437-7.43s7.437,3.333,7.437,7.43c0,0.828,0.671,1.5,1.5,1.5s1.5-0.672,1.5-1.5
		c0-4.097,3.334-7.43,7.433-7.43c4.103,0,7.44,3.333,7.44,7.43C66.417,51.383,66.019,52.738,65.266,53.938z"/>
</g>
</svg>
